<svg xmlns="http://www.w3.org/2000/svg" viewBox="0 0 312 134" width="312" height="134">
<defs></defs>
<g transform="translate(-8.20,134.00)"><g><path fill="#ffffff" d="M76 0L76 0L8.2 0L8.2 -134L76 -134Q109.4 -134 128.8 -116.3Q148.2 -98.6 148.2 -67Q148.2 -35.4 128.8 -17.7Q109.4 0 76 0M76 -100.2L76 -100.2L45.8 -100.2L45.8 -33.8L76 -33.8Q86 -33.8 91.3 -34.7Q96.6 -35.6 100.8 -39Q105 -42.4 106.5 -49Q108 -55.6 108 -67Q108 -78.4 106.5 -85Q105 -91.6 100.8 -95Q96.6 -98.4 91.3 -99.3Q86 -100.2 76 -100.2"/><path fill="#ffffff" d="M215.8 -47.6L215.8 0L178.2 0L178.2 -134L215.8 -134L215.8 -84.2L242.8 -84.2L275.4 -134L320.4 -134L274 -68.2L319.4 0L274.4 0L243.2 -47.6L215.8 -47.6"/></g></g>
</svg>